{"title":"War for the Planet of the Apes (2017) HD-TS AC-3 ","magnet":"magnet:?xt=urn:btih:28140c1ed280f58a2717a2b7d0ee648bb3c00f99&dn=War+for+the+Planet+of+the+Apes+%282017%29+HD-TS+AC-3+&tr=udp%3A%2F%2Ftracker.leechers-paradise.org%3A6969&tr=udp%3A%2F%2Fzer0day.ch%3A1337&tr=udp%3A%2F%2Fopen.demonii.com%3A1337&tr=udp%3A%2F%2Ftracker.coppersurfer.tk%3A6969&tr=udp%3A%2F%2Fexodus.desync.com%3A6969","uploader":"makintos13","categoryP":"video","categoryS":"movies","size":"1467439104","seeders":"0","leechers":"5","description":"screens:\r\n <a href=\"\nhttps://imgmak.com/zN3\" rel=\"nofollow\" target=\"_NEW\">\nhttps://imgmak.com/zN3</a>\r\n <a href=\"\nhttps://imgmak.com/zN3\" rel=\"nofollow\" target=\"_NEW\">\nhttps://imgmak.com/zN3</a>\r\n <a href=\"\nhttps://imgmak.com/zNy\" rel=\"nofollow\" target=\"_NEW\">\nhttps://imgmak.com/zNy</a>\r\n <a href=\"\nhttps://imgmak.com/zN9\" rel=\"nofollow\" target=\"_NEW\">\nhttps://imgmak.com/zN9</a>\r\n\r\n\r\nWar for the Planet of the Apes (2017) HD-TS AC-3 \r\n\r\nFormat : AVI \r\nFormat/Info : Audio Video Interleave \r\nFile size : 1.37 GiB \r\nDuration : 2h 5mn \r\nOverall bit rate : 1 553 Kbps \r\nWriting application : VirtualDubMod 1.5.10.2 (build 2540/release) \r\nWriting library : VirtualDubMod build 2540/release \r\n\r\nVideo \r\nID : 0 \r\nFormat : MPEG-4 Visual \r\nFormat profile : Advanced <a class=\"__cf_email__\" href=\"/cdn-cgi/l/email-protection\" data-cfemail=\"e0b3898d908c85a0acd5\">[email&#xA0;protected]</a><script data-cfhash=\"f9e31\" type=\"text/javascript\">/* <![CDATA[ */!function(t,e,r,n,c,a,p){try{t=document.currentScript||function(){for(t=document.getElementsByTagName('script'),e=t.length;e--;)if(t[e].getAttribute('data-cfhash'))return t[e]}();if(t&&(c=t.previousSibling)){p=t.parentNode;if(a=c.getAttribute('data-cfemail')){for(e='',r='0x'+a.substr(0,2)|0,n=2;a.length-n;n+=2)e+='%'+('0'+('0x'+a.substr(n,2)^r).toString(16)).slice(-2);p.replaceChild(document.createTextNode(decodeURIComponent(e)),c)}p.removeChild(t)}}catch(u){}}()/* ]]> */</script> \r\nLanguage:russian\r\nFormat settings, BVOP : 2 \r\nFormat settings, QPel : No \r\nFormat settings, GMC : No warppoints \r\nFormat settings, Matrix : Default (MPEG) \r\nCodec ID : XVID \r\nCodec ID/Hint : XviD \r\nDuration : 2h 5mn \r\nBit rate : 1 352 Kbps \r\nWidth : 720 pixels \r\nHeight : 288 pixels \r\nDisplay aspect ratio : 2.500 \r\nFrame rate : 23.976 fps \r\nColor space : YUV \r\nChroma subsampling : 4:2:0 \r\nBit depth : 8 bits \r\nScan type : Progressive \r\nCompression mode : Lossy \r\nBits/(Pixel*Frame) : 0.272 \r\nStream size : 1.19 GiB (87%) \r\nWriting library : XviD 1.2.1 (UTC 2008-12-04) \r\n\r\nAudio \r\nID : 1 \r\nFormat : AC-3 \r\nFormat/Info : Audio Coding 3 \r\nMode extension : CM (complete main) \r\nCodec ID : 2000 \r\nDuration : 2h 5mn \r\nBit rate mode : Constant \r\nBit rate : 192 Kbps \r\nChannel(s) : 2 channels \r\nChannel positions : Front: L R \r\nSampling rate : 48.0 KHz \r\nBit depth : 16 bits \r\nCompression mode : Lossy \r\nStream size : 173 MiB (12%) \r\nAlignment : Split accross interleaves \r\nInterleave, duration : 42 ms (1.00 video frame) \r\nInterleave, preload duration : 500 ms","last_updated":"2017-07-15T12:00:40.273Z","parsed":{"xt":"urn:btih:28140c1ed280f58a2717a2b7d0ee648bb3c00f99","dn":"War for the Planet of the Apes (2017) HD-TS AC-3 ","tr":["udp://exodus.desync.com:6969","udp://open.demonii.com:1337","udp://tracker.coppersurfer.tk:6969","udp://tracker.leechers-paradise.org:6969","udp://zer0day.ch:1337"],"infoHash":"28140c1ed280f58a2717a2b7d0ee648bb3c00f99","infoHashBuffer":{"type":"Buffer","data":[40,20,12,30,210,128,245,138,39,23,162,183,208,238,100,139,179,192,15,153]},"name":"War for the Planet of the Apes (2017) HD-TS AC-3 ","announce":["udp://exodus.desync.com:6969","udp://open.demonii.com:1337","udp://tracker.coppersurfer.tk:6969","udp://tracker.leechers-paradise.org:6969","udp://zer0day.ch:1337"],"urlList":[]}}